<svg width="268" height="56" viewBox="0 0 268 56" fill="none" xmlns="http://www.w3.org/2000/svg">
<path d="M20.7422 35.0469C20.7422 33.7188 20.2734 32.7031 19.3359 32C18.3984 31.2812 16.7109 30.5312 14.2734 29.75C11.8359 28.9531 9.90625 28.1719 8.48438 27.4062C4.60938 25.3125 2.67188 22.4922 2.67188 18.9453C2.67188 17.1016 3.1875 15.4609 4.21875 14.0234C5.26562 12.5703 6.75781 11.4375 8.69531 10.625C10.6484 9.8125 12.8359 9.40625 15.2578 9.40625C17.6953 9.40625 19.8672 9.85156 21.7734 10.7422C23.6797 11.6172 25.1562 12.8594 26.2031 14.4688C27.2656 16.0781 27.7969 17.9062 27.7969 19.9531H20.7656C20.7656 18.3906 20.2734 17.1797 19.2891 16.3203C18.3047 15.4453 16.9219 15.0078 15.1406 15.0078C13.4219 15.0078 12.0859 15.375 11.1328 16.1094C10.1797 16.8281 9.70312 17.7812 9.70312 18.9688C9.70312 20.0781 10.2578 21.0078 11.3672 21.7578C12.4922 22.5078 14.1406 23.2109 16.3125 23.8672C20.3125 25.0703 23.2266 26.5625 25.0547 28.3438C26.8828 30.125 27.7969 32.3438 27.7969 35C27.7969 37.9531 26.6797 40.2734 24.4453 41.9609C22.2109 43.6328 19.2031 44.4688 15.4219 44.4688C12.7969 44.4688 10.4062 43.9922 8.25 43.0391C6.09375 42.0703 4.44531 40.75 3.30469 39.0781C2.17969 37.4062 1.61719 35.4688 1.61719 33.2656H8.67188C8.67188 37.0312 10.9219 38.9141 15.4219 38.9141C17.0938 38.9141 18.3984 38.5781 19.3359 37.9062C20.2734 37.2188 20.7422 36.2656 20.7422 35.0469ZM58.2656 15.5703H47.8125V44H40.7812V15.5703H30.4688V9.875H58.2656V15.5703ZM78.75 36.9688H66.4219L64.0781 44H56.6016L69.3047 9.875H75.8203L88.5938 44H81.1172L78.75 36.9688ZM68.3203 31.2734H76.8516L72.5625 18.5L68.3203 31.2734ZM104.414 31.5078H98.8125V44H91.7812V9.875H104.461C108.492 9.875 111.602 10.7734 113.789 12.5703C115.977 14.3672 117.07 16.9062 117.07 20.1875C117.07 22.5156 116.562 24.4609 115.547 26.0234C114.547 27.5703 113.023 28.8047 110.977 29.7266L118.359 43.6719V44H110.812L104.414 31.5078ZM98.8125 25.8125H104.484C106.25 25.8125 107.617 25.3672 108.586 24.4766C109.555 23.5703 110.039 22.3281 110.039 20.75C110.039 19.1406 109.578 17.875 108.656 16.9531C107.75 16.0312 106.352 15.5703 104.461 15.5703H98.8125V25.8125ZM141.422 38.3516H156.352V44H134.391V9.875H141.422V38.3516ZM167.883 44H160.852V9.875H167.883V44ZM201.422 39.6875C200.156 41.2031 198.367 42.3828 196.055 43.2266C193.742 44.0547 191.18 44.4688 188.367 44.4688C185.414 44.4688 182.82 43.8281 180.586 42.5469C178.367 41.25 176.648 39.375 175.43 36.9219C174.227 34.4688 173.609 31.5859 173.578 28.2734V25.9531C173.578 22.5469 174.148 19.6016 175.289 17.1172C176.445 14.6172 178.102 12.7109 180.258 11.3984C182.43 10.0703 184.969 9.40625 187.875 9.40625C191.922 9.40625 195.086 10.375 197.367 12.3125C199.648 14.2344 201 17.0391 201.422 20.7266H194.578C194.266 18.7734 193.57 17.3438 192.492 16.4375C191.43 15.5312 189.961 15.0781 188.086 15.0781C185.695 15.0781 183.875 15.9766 182.625 17.7734C181.375 19.5703 180.742 22.2422 180.727 25.7891V27.9688C180.727 31.5469 181.406 34.25 182.766 36.0781C184.125 37.9062 186.117 38.8203 188.742 38.8203C191.383 38.8203 193.266 38.2578 194.391 37.1328V31.25H187.992V26.0703H201.422V39.6875ZM234.914 44H227.883V29.375H214.172V44H207.141V9.875H214.172V23.7031H227.883V9.875H234.914V44ZM266.062 15.5703H255.609V44H248.578V15.5703H238.266V9.875H266.062V15.5703Z" fill="#7C9BE9"/>
</svg>
