<svg width="201" height="42" viewBox="0 0 201 42" fill="none" xmlns="http://www.w3.org/2000/svg">
<path d="M15.5566 26.2852C15.5566 25.2891 15.2051 24.5273 14.502 24C13.7988 23.4609 12.5332 22.8984 10.7051 22.3125C8.87695 21.7148 7.42969 21.1289 6.36328 20.5547C3.45703 18.9844 2.00391 16.8691 2.00391 14.209C2.00391 12.8262 2.39062 11.5957 3.16406 10.5176C3.94922 9.42773 5.06836 8.57813 6.52148 7.96875C7.98633 7.35937 9.62695 7.05469 11.4434 7.05469C13.2715 7.05469 14.9004 7.38867 16.3301 8.05664C17.7598 8.71289 18.8672 9.64453 19.6523 10.8516C20.4492 12.0586 20.8477 13.4297 20.8477 14.9648H15.5742C15.5742 13.793 15.2051 12.8848 14.4668 12.2402C13.7285 11.584 12.6914 11.2559 11.3555 11.2559C10.0664 11.2559 9.06445 11.5313 8.34961 12.082C7.63477 12.6211 7.27734 13.3359 7.27734 14.2266C7.27734 15.0586 7.69336 15.7559 8.52539 16.3184C9.36914 16.8809 10.6055 17.4082 12.2344 17.9004C15.2344 18.8027 17.4199 19.9219 18.791 21.2578C20.1621 22.5938 20.8477 24.2578 20.8477 26.25C20.8477 28.4648 20.0098 30.2051 18.334 31.4707C16.6582 32.7246 14.4023 33.3516 11.5664 33.3516C9.59766 33.3516 7.80469 32.9941 6.1875 32.2793C4.57031 31.5527 3.33398 30.5625 2.47852 29.3086C1.63477 28.0547 1.21289 26.6016 1.21289 24.9492H6.50391C6.50391 27.7734 8.19141 29.1855 11.5664 29.1855C12.8203 29.1855 13.7988 28.9336 14.502 28.4297C15.2051 27.9141 15.5566 27.1992 15.5566 26.2852ZM43.6992 11.6777H35.8594V33H30.5859V11.6777H22.8516V7.40625H43.6992V11.6777ZM59.0625 27.7266H49.8164L48.0586 33H42.4512L51.9785 7.40625H56.8652L66.4453 33H60.8379L59.0625 27.7266ZM51.2402 23.4551H57.6387L54.4219 13.875L51.2402 23.4551ZM78.3105 23.6309H74.1094V33H68.8359V7.40625H78.3457C81.3691 7.40625 83.7012 8.08008 85.3418 9.42773C86.9824 10.7754 87.8027 12.6797 87.8027 15.1406C87.8027 16.8867 87.4219 18.3457 86.6602 19.5176C85.9102 20.6777 84.7676 21.6035 83.2324 22.2949L88.7695 32.7539V33H83.1094L78.3105 23.6309ZM74.1094 19.3594H78.3633C79.6875 19.3594 80.7129 19.0254 81.4395 18.3574C82.166 17.6777 82.5293 16.7461 82.5293 15.5625C82.5293 14.3555 82.1836 13.4062 81.4922 12.7148C80.8125 12.0234 79.7637 11.6777 78.3457 11.6777H74.1094V19.3594ZM106.066 28.7637H117.264V33H100.793V7.40625H106.066V28.7637ZM125.912 33H120.639V7.40625H125.912V33ZM151.066 29.7656C150.117 30.9023 148.775 31.7871 147.041 32.4199C145.307 33.041 143.385 33.3516 141.275 33.3516C139.061 33.3516 137.115 32.8711 135.439 31.9102C133.775 30.9375 132.486 29.5312 131.572 27.6914C130.67 25.8516 130.207 23.6895 130.184 21.2051V19.4648C130.184 16.9102 130.611 14.7012 131.467 12.8379C132.334 10.9629 133.576 9.5332 135.193 8.54883C136.822 7.55273 138.727 7.05469 140.906 7.05469C143.941 7.05469 146.314 7.78125 148.025 9.23438C149.736 10.6758 150.75 12.7793 151.066 15.5449H145.934C145.699 14.0801 145.178 13.0078 144.369 12.3281C143.572 11.6484 142.471 11.3086 141.064 11.3086C139.271 11.3086 137.906 11.9824 136.969 13.3301C136.031 14.6777 135.557 16.6816 135.545 19.3418V20.9766C135.545 23.6602 136.055 25.6875 137.074 27.0586C138.094 28.4297 139.588 29.1152 141.557 29.1152C143.537 29.1152 144.949 28.6934 145.793 27.8496V23.4375H140.994V19.5527H151.066V29.7656ZM176.186 33H170.912V22.0312H160.629V33H155.355V7.40625H160.629V17.7773H170.912V7.40625H176.186V33ZM199.547 11.6777H191.707V33H186.434V11.6777H178.699V7.40625H199.547V11.6777Z" fill="#7C9BE9"/>
</svg>
