<svg width="167" height="27" viewBox="0 0 167 27" fill="none" xmlns="http://www.w3.org/2000/svg">
<path d="M12.9639 18.4043C12.9639 17.5742 12.6709 16.9395 12.085 16.5C11.499 16.0508 10.4443 15.582 8.9209 15.0938C7.39746 14.5957 6.19141 14.1074 5.30273 13.6289C2.88086 12.3203 1.66992 10.5576 1.66992 8.34082C1.66992 7.18848 1.99219 6.16309 2.63672 5.26465C3.29102 4.35645 4.22363 3.64844 5.43457 3.14062C6.65527 2.63281 8.02246 2.37891 9.53613 2.37891C11.0596 2.37891 12.417 2.65723 13.6084 3.21387C14.7998 3.76074 15.7227 4.53711 16.377 5.54297C17.041 6.54883 17.373 7.69141 17.373 8.9707H12.9785C12.9785 7.99414 12.6709 7.2373 12.0557 6.7002C11.4404 6.15332 10.5762 5.87988 9.46289 5.87988C8.38867 5.87988 7.55371 6.10938 6.95801 6.56836C6.3623 7.01758 6.06445 7.61328 6.06445 8.35547C6.06445 9.04883 6.41113 9.62988 7.10449 10.0986C7.80762 10.5674 8.83789 11.0068 10.1953 11.417C12.6953 12.1689 14.5166 13.1016 15.6592 14.2148C16.8018 15.3281 17.373 16.7148 17.373 18.375C17.373 20.2207 16.6748 21.6709 15.2783 22.7256C13.8818 23.7705 12.002 24.293 9.63867 24.293C7.99805 24.293 6.50391 23.9951 5.15625 23.3994C3.80859 22.7939 2.77832 21.9688 2.06543 20.9238C1.3623 19.8789 1.01074 18.668 1.01074 17.291H5.41992C5.41992 19.6445 6.82617 20.8213 9.63867 20.8213C10.6836 20.8213 11.499 20.6113 12.085 20.1914C12.6709 19.7617 12.9639 19.166 12.9639 18.4043ZM36.416 6.23145H29.8828V24H25.4883V6.23145H19.043V2.67188H36.416V6.23145ZM49.2188 19.6055H41.5137L40.0488 24H35.376L43.3154 2.67188H47.3877L55.3711 24H50.6982L49.2188 19.6055ZM42.7002 16.0459H48.0322L45.3516 8.0625L42.7002 16.0459ZM65.2588 16.1924H61.7578V24H57.3633V2.67188H65.2881C67.8076 2.67188 69.751 3.2334 71.1182 4.35645C72.4854 5.47949 73.1689 7.06641 73.1689 9.11719C73.1689 10.5723 72.8516 11.7881 72.2168 12.7646C71.5918 13.7314 70.6396 14.5029 69.3604 15.0791L73.9746 23.7949V24H69.2578L65.2588 16.1924ZM61.7578 12.6328H65.3027C66.4062 12.6328 67.2607 12.3545 67.8662 11.7979C68.4717 11.2314 68.7744 10.4551 68.7744 9.46875C68.7744 8.46289 68.4863 7.67187 67.9102 7.0957C67.3438 6.51953 66.4697 6.23145 65.2881 6.23145H61.7578V12.6328ZM88.3887 20.4697H97.7197V24H83.9941V2.67188H88.3887V20.4697ZM104.927 24H100.532V2.67188H104.927V24ZM125.889 21.3047C125.098 22.252 123.979 22.9893 122.534 23.5166C121.089 24.0342 119.487 24.293 117.729 24.293C115.884 24.293 114.263 23.8926 112.866 23.0918C111.479 22.2812 110.405 21.1094 109.644 19.5762C108.892 18.043 108.506 16.2412 108.486 14.1709V12.7207C108.486 10.5918 108.843 8.75098 109.556 7.19824C110.278 5.63574 111.313 4.44434 112.661 3.62402C114.019 2.79395 115.605 2.37891 117.422 2.37891C119.951 2.37891 121.929 2.98437 123.354 4.19531C124.78 5.39648 125.625 7.14941 125.889 9.4541H121.611C121.416 8.2334 120.981 7.33984 120.308 6.77344C119.644 6.20703 118.726 5.92383 117.554 5.92383C116.06 5.92383 114.922 6.48535 114.141 7.6084C113.359 8.73145 112.964 10.4014 112.954 12.6182V13.9805C112.954 16.2168 113.379 17.9062 114.229 19.0488C115.078 20.1914 116.323 20.7627 117.964 20.7627C119.614 20.7627 120.791 20.4111 121.494 19.708V16.0312H117.495V12.7939H125.889V21.3047ZM146.821 24H142.427V14.8594H133.857V24H129.463V2.67188H133.857V11.3145H142.427V2.67188H146.821V24ZM166.289 6.23145H159.756V24H155.361V6.23145H148.916V2.67188H166.289V6.23145Z" fill="#7C9BE9"/>
</svg>
